<?xml version="1.0" encoding="UTF-8" standalone="no"?>
<!-- Created with Inkscape (http://www.inkscape.org/) -->
<svg
   xmlns:dc="http://purl.org/dc/elements/1.1/"
   xmlns:cc="http://web.resource.org/cc/"
   xmlns:rdf="http://www.w3.org/1999/02/22-rdf-syntax-ns#"
   xmlns:svg="http://www.w3.org/2000/svg"
   xmlns="http://www.w3.org/2000/svg"
   xmlns:sodipodi="http://sodipodi.sourceforge.net/DTD/sodipodi-0.dtd"
   xmlns:inkscape="http://www.inkscape.org/namespaces/inkscape"
   width="515.54742"
   height="515.17651"
   id="svg2241"
   sodipodi:version="0.32"
   inkscape:version="0.44"
   version="1.0"
   sodipodi:docbase="E:\Logos"
   sodipodi:docname="Peugeot.svg">
  <defs
     id="defs2243" />
  <sodipodi:namedview
     id="base"
     pagecolor="#ffffff"
     bordercolor="#666666"
     borderopacity="1.0"
     inkscape:pageopacity="0.0"
     inkscape:pageshadow="2"
     inkscape:zoom="0.35919193"
     inkscape:cx="372.04724"
     inkscape:cy="494.83282"
     inkscape:document-units="px"
     inkscape:current-layer="layer1"
     inkscape:window-width="925"
     inkscape:window-height="573"
     inkscape:window-x="57"
     inkscape:window-y="387" />
  <metadata
     id="metadata2246">
    <rdf:RDF>
      <cc:Work
         rdf:about="">
        <dc:format>image/svg+xml</dc:format>
        <dc:type
           rdf:resource="http://purl.org/dc/dcmitype/StillImage" />
      </cc:Work>
    </rdf:RDF>
  </metadata>
  <g
     inkscape:label="Ebene 1"
     inkscape:groupmode="layer"
     id="layer1"
     transform="translate(-8.763947,-460.713)">
    <g
       id="g2269"
       transform="matrix(0.692938,0,0,0.692938,434.8226,290.0126)">
      <path
         style="fill:#00519b;fill-rule:nonzero;stroke:none"
         d="M -614.85826,989.80996 L 129.14397,989.80996 L 129.14397,246.34298 L -614.85826,246.34298 L -614.85826,989.80996 z "
         class="ps00"
         id="path2191" />
      <path
         style="fill:#002e66;fill-rule:nonzero;stroke:none"
         d="M -194.96119,647.22009 C -180.47244,656.80851 -173.9202,661.13668 -159.61601,668.38106 C -147.71124,663.50841 -133.86848,668.15958 -135.99103,677.92334 C -137.37531,684.39252 -138.57501,698.18914 -146.14239,697.66311 C -154.54033,697.00789 -163.76884,693.01195 -174.93533,699.55496 C -182.41042,703.76316 -192.83863,723.05996 -199.48316,724.61958 C -194.59205,731.17182 -190.71608,736.33056 -190.71608,736.33056 C -171.79764,736.33056 -157.58574,746.02972 -150.20293,750.5886 C -119.28743,737.58563 -107.19809,743.05814 -76.559447,748.53987 C -72.775759,749.22278 -70.745487,743.39036 -71.945193,738.66537 C -73.975465,730.60888 -79.051144,719.13785 -79.420284,714.02526 L -79.420284,646.55564 C -83.942252,641.26771 -90.217637,631.59623 -90.217637,631.59623 C -103.22983,634.88158 -109.32065,634.1433 -111.62777,626.70512 C -114.21176,618.67632 -120.48714,602.10192 -125.37825,591.67371 C -125.37825,591.67371 -97.600443,588.44373 -81.081415,568.41787 C -74.80603,561.03507 -68.161505,548.57658 -68.346075,533.6264 C -68.622931,500.21921 -95.201031,451.03126 -101.84556,434.05081 C -105.9061,423.80717 -117.44173,396.95221 -106.27524,385.878 C -101.84556,381.63289 -92.709334,379.23348 -86.249379,392.7071 C -83.111687,399.25934 -81.727411,396.3985 -82.373406,397.59821 C -90.402207,410.05669 -95.201031,416.7935 -91.878768,428.14457 C -87.17223,444.10988 -66.592659,459.24463 -59.948134,463.39746 C -59.948134,463.39746 -48.966211,470.50341 -46.751369,468.84228 C -41.49112,464.87402 -54.41103,443.83303 -54.134175,439.49563 C -53.857319,435.61966 -53.765034,432.11282 -52.473043,427.96 C -50.996482,423.34574 -48.781641,416.60893 -47.48965,409.59527 C -43.429107,387.35456 -61.793836,356.53135 -83.203972,353.57823 C -89.017931,352.83995 -107.19809,359.66904 -123.07112,383.47859 C -126.11653,387.90828 -130.45393,399.53619 -129.9925,408.39556 C -137.83673,389.75398 -147.3421,368.6207 -157.86259,352.93223 C -161.18486,345.54943 -178.99587,324.96986 -184.25612,323.4933 C -199.02173,319.61732 -211.84936,322.01674 -225.7844,319.89418 C -231.50608,320.44789 -272.29608,329.30726 -273.68036,331.24524 C -273.68036,331.24524 -283.64714,346.74913 -283.64714,346.84142 C -293.7985,349.33312 -306.8107,353.67051 -308.37954,355.70079 C -312.90151,361.1456 -317.14662,363.45273 -315.67006,365.66757 C -313.82436,372.03524 -309.48696,373.23495 -309.48696,373.23495 L -287.15398,373.32723 C -281.34002,363.54502 -263.62128,365.02158 -253.19307,373.5118 C -249.50167,376.55721 -253.19307,374.06551 -251.53194,378.67977 C -257.53047,381.17147 -267.2204,384.21687 -274.14178,382.46346 C -283.64714,381.17147 -302.75015,379.87947 -308.0104,381.72518 L -304.22671,388.00056 C -298.41275,390.39997 -286.13884,391.50739 -281.52459,391.59968 C -274.14178,391.78425 -263.06757,392.52253 -253.46993,391.78425 C -258.26875,398.61334 -261.12959,407.74957 -267.68183,407.74957 L -293.52165,407.74957 C -293.15251,409.4107 -299.05875,409.04156 -298.50504,410.70269 C -298.50504,410.70269 -294.62907,415.22466 -292.5988,418.08549 L -277.0949,418.91606 C -269.98895,419.2852 -270.45038,426.02201 -273.03436,429.8057 C -277.37176,436.26565 -289.55339,448.17043 -299.9816,449.18556 C -326.19056,426.29886 -345.84728,409.68755 -371.59482,389.20027 C -375.93221,385.69343 -380.73104,384.0323 -387.92927,382.8326 C -395.12751,381.54061 -407.12457,380.52547 -417.64507,380.52547 C -422.16703,380.52547 -445.51516,377.94149 -447.17629,379.51033 L -442.7466,386.06257 C -442.19289,389.56941 -443.02346,391.32282 -443.66946,397.78278 C -443.94631,400.45904 -444.96145,405.0733 -444.96145,405.0733 C -444.96145,405.0733 -441.63918,409.59527 -438.87063,413.74809 C -427.42728,409.22613 -417.92192,417.80864 -417.92192,417.80864 L -426.31986,423.80717 L -418.29106,435.06595 C -404.63287,440.14162 -395.12751,440.69534 -375.19393,436.63479 L -337.0802,483.23875 L -406.84771,486.83787 C -416.53764,487.20701 -423.92045,494.6821 -426.22758,501.04977 C -428.62699,507.32516 -441.45461,509.81685 -442.00832,514.89253 L -433.79495,526.88959 L -428.99613,525.41303 C -426.22758,528.82758 -421.52104,535.65667 -414.41509,538.97893 C -411.83111,534.36468 -405.18658,528.82758 -397.25006,530.48871 C -395.12751,533.07269 -390.14411,540.54778 -390.14411,540.54778 C -378.23934,542.48577 -363.93515,533.34955 -361.44346,521.72163 L -303.85757,520.98335 L -271.92694,558.3588 C -294.16764,588.35145 -317.14662,623.48437 -338.9259,657.98053 C -329.42054,666.59073 -332.65052,684.17104 -348.24669,685.81371 C -358.85948,686.93959 -370.67196,677.12046 -384.97615,680.35043 C -399.18805,683.46967 -415.98393,692.84583 -424.56645,705.18435 C -422.9976,707.39919 -416.35307,716.57232 -416.35307,716.57232 C -404.17145,719.58082 -389.49812,726.39145 -379.16219,739.83739 C -361.44346,728.16333 -321.29945,738.8038 -306.25699,743.77796 C -302.19644,745.45755 -298.87418,742.39369 -299.15104,736.61664 C -299.42789,730.14746 -305.98013,720.95586 -302.38101,710.38922 C -296.01334,691.53538 -248.48653,652.4342 -222.46214,627.82177 C -222.46214,627.82177 -204.28198,641.14774 -194.96119,647.22009 z M -104.98325,481.85448 C -96.769877,502.52633 -93.816755,511.29341 -91.140488,525.41303 C -89.110216,536.57952 -90.217637,546.82317 -94.555035,552.63713 C -99.722999,559.55851 -113.2889,570.35586 -139.867,564.08047 L -139.867,564.08047 C -148.08038,551.99113 -164.50712,528.82758 -171.98221,517.38423 C -166.72196,498.00436 -164.23026,493.29783 -160.07744,474.84081 L -149.55694,480.10106 C -144.66583,466.44287 -132.76105,432.20511 -130.36164,419.74662 C -130.36164,419.74662 -126.67024,426.57572 -123.99397,434.60452 C -117.99544,452.23097 -110.98178,466.62744 -104.98325,481.85448 z M -245.81027,343.2423 C -250.88594,345.45714 -260.20674,348.68712 -267.77411,351.2711 C -269.43524,347.11827 -269.61981,343.79601 -268.88153,338.9049 C -262.60615,337.98205 -253.28536,336.69006 -247.19454,336.69006 C -243.31857,336.69006 -242.30343,341.58117 -245.81027,343.2423"
         class="ps02"
         id="path2197" />
      <path
         style="fill:white;fill-rule:nonzero;stroke:none"
         d="M -65.669808,427.59086 C -65.392953,423.6226 -64.285532,420.11576 -62.993541,415.96294 C -61.51698,411.2564 -58.840713,404.61187 -58.010148,397.50592 C -55.518451,375.35751 -68.346075,354.77794 -89.848497,351.9171 C -95.570171,351.08653 -118.36458,347.5797 -134.3299,371.38925 C -137.37531,375.81893 -141.71271,387.44685 -141.25128,396.30622 C -149.09551,377.66463 -158.69316,356.43907 -169.12137,340.7506 C -171.4285,337.7052 -183.1487,323.86244 -186.37868,322.93959 C -201.05201,319.06361 -218.58617,315.00307 -232.52122,312.78823 C -238.24289,313.34194 -281.06316,328.66126 -282.44744,330.59925 C -282.44744,330.59925 -287.33855,335.67493 -287.33855,335.76721 C -297.4899,338.25891 -318.5309,341.48889 -320.00746,343.51916 C -324.52943,348.96398 -321.39174,354.13194 -319.91518,356.34678 C -319.45375,357.17735 -316.0392,369.08212 -310.04067,369.08212 L -293.7985,369.08212 C -285.95427,355.79307 -262.79072,355.14708 -256.33076,373.05038 C -262.42158,375.54208 -267.2204,378.31063 -279.21746,376.83407 C -293.61393,374.8038 -308.10269,379.6949 -308.0104,381.72518 C -307.91812,384.86287 -291.02995,385.878 -286.60027,385.97029 C -279.21746,386.15486 -268.05097,386.89314 -258.26875,386.15486 C -263.15986,393.07624 -272.66522,395.66022 -279.21746,395.66022 L -305.14957,395.66022 C -303.94986,401.19733 -301.73502,406.273 -298.68961,410.51812 L -287.98454,410.51812 C -280.87859,410.88726 -283.09343,413.47124 -284.56999,417.90092 C -287.33855,425.74515 -292.32194,437.64993 -300.16617,444.57131 C -326.46742,421.59233 -361.62803,392.98395 -386.545,374.71151 C -393.83552,369.45126 -423.73588,365.66757 -438.68606,371.38925 C -443.02346,373.05038 -445.69973,376.55721 -447.17629,379.32576 L -439.79348,381.54061 C -453.45167,389.66169 -444.96145,405.0733 -444.96145,405.0733 C -438.31692,403.59674 -427.98099,400.27447 -417.09136,416.33208 L -426.22758,423.71488 C -421.61332,427.03714 -393.55866,430.26712 -385.52986,425.28373 C -385.52986,425.28373 -352.30724,469.48828 -348.8004,471.42626 C -346.86242,472.4414 -362.27402,473.27196 -379.43905,474.56396 C -394.29694,474.74853 -408.1397,475.02538 -418.93706,475.20995 C -428.71927,475.48681 -435.82522,482.86961 -438.22464,489.23728 C -440.62405,495.60495 -443.20803,508.894 -442.00832,514.80025 L -436.65579,513.04683 C -429.82669,524.39789 -429.45755,526.88959 -420.59819,530.21185 C -415.61479,517.66108 -396.97321,519.04536 -396.97321,519.04536 L -397.15778,530.48871 C -371.31796,530.30414 -368.82626,511.57027 -368.82626,511.57027 L -318.34633,510.83199 L -286.32341,549.49943 C -312.53237,576.81581 -330.80481,610.49986 -350.6461,646.53718 C -341.14074,655.16584 -344.37072,672.79229 -360.05918,674.43496 C -370.67196,675.56084 -382.39217,665.72325 -396.78864,668.96246 C -414.3228,672.77383 -410.6314,686.80116 -424.47416,705.1382 C -410.6314,708.54352 -396.23493,717.51363 -386.82185,728.44018 C -367.90341,716.45235 -329.51282,725.71777 -314.56264,730.70117 C -311.24038,731.7809 -309.8561,725.74546 -311.97866,720.65132 C -313.73208,716.50772 -316.31606,710.04777 -311.79409,699.49959 C -307.73355,690.04037 -262.69843,644.22083 -230.7678,615.13257 C -230.58323,614.96646 -219.60131,623.2998 -208.5271,631.43935 C -191.1775,644.15623 -168.10624,657.02077 -168.10624,657.02077 L -163.49198,656.66086 C -142.54327,652.16657 -139.03644,670.6605 -141.34357,676.88051 C -143.65069,683.0913 -149.83379,686.83807 -157.40117,686.31205 C -165.79911,685.6476 -175.02762,681.65165 -186.28639,688.21312 C -197.54517,694.51619 -192.74635,715.5941 -199.57545,724.47193 C -180.56472,724.47193 -165.33768,734.18031 -157.95488,738.74843 C -126.94709,725.71777 -117.90316,729.70449 -86.526234,735.01088 C -84.403678,735.42616 -82.650261,729.35381 -85.049673,725.84697 C -87.3568,722.58008 -90.863633,713.84991 -90.217637,706.63322 L -90.217637,631.61469 C -110.15121,634.2725 -119.37972,625.97607 -122.88655,615.18795 C -125.47053,607.1776 -133.03791,590.75086 -137.92902,580.23036 C -137.92902,580.23036 -107.1058,579.49208 -90.402207,559.46622 C -84.219108,551.99113 -78.866573,536.85638 -81.727411,522.55219 C -85.695669,502.80319 -88.279651,496.15866 -95.201031,478.90135 C -101.01499,464.59717 -111.62777,438.29592 -116.05746,423.34574 C -122.33284,402.21246 -123.25569,392.79938 -116.61117,381.07918 C -112.55062,373.97323 -103.87583,367.3287 -93.90904,372.21981 C -87.3568,375.35751 -88.833361,377.20321 -89.479357,378.40291 C -97.508158,390.8614 -100.83042,407.10357 -97.415873,418.45463 C -92.709334,434.41995 -77.666868,447.33986 -71.022343,451.49269 C -71.022343,451.49269 -60.040419,458.69092 -57.825578,456.93751 C -52.565329,452.96925 -66.223519,433.77396 -65.669808,427.59086 z M -248.94796,338.16662 C -253.93135,340.38146 -263.25214,343.61144 -270.81952,346.19542 C -272.48065,342.0426 -272.66522,338.72033 -271.92694,333.82922 C -265.55927,332.81409 -256.33076,331.61438 -250.23995,331.61438 C -246.45626,331.61438 -245.34884,336.50549 -248.94796,338.16662 z M -117.44173,472.4414 C -109.22836,493.20554 -106.27524,502.06491 -103.69126,516.09224 C -101.47642,527.35102 -102.67612,537.59466 -107.01352,543.5009 C -112.18148,550.33 -125.83967,561.21964 -152.41777,554.94425 L -152.41777,554.94425 C -160.72343,542.76262 -175.48904,520.89106 -182.96413,509.35543 C -177.6116,489.97556 -175.21219,485.17674 -171.05936,466.71973 C -171.05936,466.71973 -159.43144,473.08739 -158.87773,470.87255 C -156.93974,462.65918 -143.65069,423.99174 -141.25128,411.53325 C -141.25128,411.53325 -139.22101,417.07036 -136.54474,425.09916 C -130.54621,442.81789 -123.53255,457.21436 -117.44173,472.4414"
         class="ps01"
         id="path2199" />
      <path
         style="fill:#e4e4e4;fill-rule:nonzero;stroke:none"
         d="M -117.44173,472.62597 C -109.22836,493.29783 -106.27524,502.15719 -103.59897,516.18452 C -101.5687,527.25873 -102.58384,537.50237 -107.01352,543.40862 C -112.18148,550.23771 -125.74739,561.21964 -152.41777,554.94425 L -152.32549,554.94425 C -160.63115,542.85491 -175.39676,520.98335 -182.87185,509.44771 C -177.6116,490.06785 -175.1199,485.36131 -170.96707,466.81201 C -170.96707,466.81201 -159.33915,473.27196 -158.78544,470.96484 C -156.84746,462.75147 -143.55841,424.17631 -141.25128,411.71782 C -141.25128,411.71782 -139.22101,417.25493 -136.45246,425.28373 C -130.54621,442.91018 -123.44026,457.39893 -117.44173,472.62597 z M -210.46508,392.0611 C -210.46508,446.78615 -236.21262,487.20701 -239.53488,535.93353 C -241.65744,567.12588 -239.53488,586.50575 -230.58323,615.17872 C -230.58323,615.17872 -219.60131,623.30903 -208.5271,631.43935 C -191.1775,644.147 -168.47538,657.35299 -168.47538,657.35299 L -162.56913,656.80851 C -142.82013,652.25886 -139.31329,670.9835 -141.62042,677.19428 C -143.92755,683.40507 -149.83379,686.66273 -157.40117,686.13671 C -165.79911,685.47225 -175.02762,681.47631 -186.19411,688.02855 C -197.54517,694.33162 -192.74635,715.64024 -199.66773,724.50884 C -180.65701,724.50884 -165.33768,734.31874 -157.95488,738.87762 C -127.03938,725.8562 -117.71859,730.02749 -86.341664,735.33388 C -84.219108,735.73993 -82.557976,729.46455 -85.049673,725.29326 C -87.079945,721.87872 -90.679062,713.5546 -90.125352,706.81779 L -90.217637,631.48549 C -110.2435,634.1433 -119.37972,625.84687 -122.88655,615.06798 C -125.47053,606.99303 -132.76105,590.84314 -137.74445,580.41493 C -137.74445,580.41493 -106.92123,579.58437 -90.217637,559.65079 C -84.034537,552.1757 -78.774288,539.8095 -81.081415,522.92133 C -83.573112,504.5566 -90.309922,489.05271 -94.27818,478.6245 C -99.815284,464.13574 -111.07406,439.12649 -115.50375,424.17631 C -121.77913,403.04303 -123.71712,394.09137 -116.70345,381.26375 C -112.73519,374.1578 -103.87583,367.42099 -94.001325,372.3121 C -87.449085,375.44979 -88.925646,377.29549 -89.479357,378.4952 C -97.600443,390.95368 -100.83042,407.10357 -97.508158,418.54692 C -92.801619,434.51224 -77.666868,447.33986 -71.114628,451.49269 C -71.114628,451.49269 -59.855849,458.78321 -57.733292,457.12208 C -52.380758,453.15382 -66.131234,433.86624 -65.577523,427.59086 C -65.300668,423.71488 -64.285532,420.11576 -62.993541,416.05522 C -61.51698,411.34868 -58.656143,404.33502 -57.825578,397.32135 C -55.241596,375.08065 -68.438361,354.59336 -89.940782,351.73253 C -95.662456,350.90196 -118.36458,347.39513 -134.3299,371.20468 C -137.28302,375.63436 -141.71271,386.524 -141.25128,396.21393 C -149.09551,377.57235 -158.50859,356.34678 -169.02909,340.65832 C -171.24393,337.61291 -183.05642,323.77015 -186.28639,322.8473 C -199.39087,319.34047 -225.23069,313.15737 -232.33664,312.69594 C -232.33664,312.69594 -210.46508,337.33606 -210.46508,392.0611"
         class="ps03"
         id="path2201" />
      <path
         style="fill:white;fill-rule:nonzero;stroke:none"
         d="M -22.664966,860.94309 C -22.664966,888.30561 -39.091708,905.62752 -65.669808,906.28274 C -91.878768,906.92874 -108.30551,891.49867 -108.95151,865.52043 C -109.5975,839.67138 -92.432479,821.83267 -66.408089,821.19591 C -40.383699,820.55914 -22.664966,836.65366 -22.664966,860.94309 z M -87.633655,865.76037 C -87.17223,885.40786 -78.866573,896.47284 -65.208383,896.46361 C -47.30508,896.44515 -43.521392,875.71793 -43.798247,863.97927 C -44.259672,844.83934 -51.088767,831.28267 -65.577523,831.31035 C -80.066279,831.34727 -88.09508,844.35023 -87.633655,865.76037 M -201.698,835.87846 L -198.65259,826.34541 C -207.14282,822.46021 -217.7556,821.13131 -226.98411,821.13131 C -265.00556,821.13131 -277.46404,846.7035 -277.46404,863.97004 C -277.46404,886.31225 -262.60615,906.28274 -230.86008,906.28274 C -208.98852,906.28274 -196.53004,898.83534 -196.53004,898.83534 L -196.53004,864.55143 L -217.47875,864.55143 L -217.47875,894.30414 C -217.47875,894.30414 -217.7556,894.56254 -218.21703,894.77479 C -220.8933,895.96527 -226.24583,896.6205 -231.69065,895.8453 C -245.62569,893.88886 -254.8542,881.27349 -254.8542,864.26535 C -254.8542,844.18412 -237.13547,833.29448 -225.23069,832.80537 C -213.32592,832.30703 -205.48169,834.80796 -201.698,835.87846 M 52.916506,835.1125 L 26.522976,835.1125 L 26.522976,902.6744 L 5.2051253,902.6744 L 5.2051253,835.1125 L -20.450124,835.1125 L -20.450124,824.1398 L 52.916506,824.1398 L 52.916506,835.1125 M -528.20258,824.1398 L -486.48973,824.1398 C -470.6167,824.1398 -467.01758,824.70274 -461.2959,827.15752 C -454.09767,830.16602 -448.74513,839.37607 -448.74513,846.94344 C -448.74513,869.62711 -465.07959,873.7338 -484.64403,873.7338 L -505.77731,873.7338 L -505.77731,902.6744 L -528.20258,902.6744 L -528.20258,824.1398 z M -505.86959,864.81906 L -489.90428,864.80983 C -479.01464,864.80983 -471.53955,857.98996 -471.53955,849.33363 C -471.53955,840.76034 -479.10692,833.84819 -488.88914,833.84819 L -505.86959,833.92202 L -505.86959,864.81906"
         class="ps01"
         id="path2207" />
      <path
         style="fill:white;fill-rule:nonzero;stroke:none"
         d="M -326.65199,906.28274 L -326.5597,906.28274 C -312.25552,906.28274 -303.85757,902.49905 -296.2902,894.92245 C -291.76823,890.39125 -288.90739,884.88183 -288.90739,872.0173 L -288.90739,824.1398 L -309.8561,824.1398 C -309.8561,824.1398 -309.8561,865.8988 -309.8561,877.98814 C -309.8561,888.71166 -316.77748,895.59613 -326.5597,895.59613 L -326.5597,895.59613 C -336.34192,895.59613 -343.63244,889.0808 -343.63244,877.12066 C -343.63244,865.16051 -343.63244,824.1398 -343.63244,824.1398 L -364.48887,824.1398 L -364.48887,871.5651 C -364.48887,884.85415 -361.25889,890.97265 -356.73692,895.51307 C -349.16954,903.08045 -340.86389,906.28274 -326.5597,906.28274 L -326.65199,906.28274 M -418.19878,890.03134 L -379.06991,890.03134 L -379.06991,902.6744 L -439.51663,902.6744 L -439.51663,824.1398 L -379.06991,824.1398 L -379.06991,835.28784 L -418.19878,835.28784 L -418.19878,854.98147 L -386.545,854.98147 L -386.545,864.51452 L -418.19878,864.51452 L -418.19878,890.03134 M -157.2166,890.31742 L -117.99544,890.31742 L -117.99544,902.6744 L -178.44216,902.6744 L -178.44216,824.1398 L -117.99544,824.1398 L -117.99544,835.57392 L -157.2166,835.57392 L -157.2166,855.26756 L -125.47053,855.26756 L -125.47053,864.8006 L -157.2166,864.8006 L -157.2166,890.31742"
         class="ps01"
         id="path2209" />
    </g>
  </g>
</svg>
