<?xml version="1.0" encoding="UTF-8"?>
<!-- Generator: Adobe Illustrator 16.0.3, SVG Export Plug-In . SVG Version: 6.00 Build 0)  -->
<!DOCTYPE svg PUBLIC "-//W3C//DTD SVG 1.1//EN" "http://www.w3.org/Graphics/SVG/1.1/DTD/svg11.dtd">
<svg version="1.1" id="svg2" xmlns:rdf="http://www.w3.org/1999/02/22-rdf-syntax-ns#" xmlns:dc="http://purl.org/dc/elements/1.1/" xmlns:svg="http://www.w3.org/2000/svg" xmlns:cc="http://creativecommons.org/ns#" xmlns="http://www.w3.org/2000/svg" xmlns:xlink="http://www.w3.org/1999/xlink" x="0px" y="0px" width="257.008px" height="201.214px" viewBox="0 27.897 257.008 201.214" enable-background="new 0 27.897 257.008 201.214" xml:space="preserve">
<g id="g10" transform="matrix(1.3333333,0,0,-1.3333333,0,257.00799)">
	<g id="g12" transform="scale(0.1)">
		<path id="path16" d="M1686.05,209.225v18.831H223.378v-18.831H1686.05L1686.05,209.225"/>
		<path id="path18" d="M170.479,577.113H28.349v-22.346h17.948l0,0c4.636,0,11.807-7.354,11.807-11.99l0,0v-54.045h87.242v66.035    h25.133V577.113L170.479,577.113"/>
		<path id="path20" d="M591.424,283.068v88.462h-47.139v-37.881c0-13.008-6.178-28.271-17.428-28.271l0,0h-51.299l0,0    c-4.629,0-11.517,6.431-11.517,11.06l0,0v99.009l0,0c0,4.629,3.538,8.232,8.17,8.232l0,0h14.546l0,0    c4.636,0,11.704-7.412,11.704-12.041l0,0v-18.794h43.451v88.777h-42.433v-18.376l0,0c0-4.622-7.705-12.883-12.341-12.883l0,0    h-14.927l0,0c-4.633,0-8.17,5.266-8.17,9.91l0,0v84.822l0,0c0,4.629,6.888,9.675,11.517,9.675l0,0h49.951l0,0    c6.475,0,12.166-5.896,12.166-12.385l0,0v-40.635h43.821v75.366H346.934v-22.346h17.963l0,0c4.625,0,11.792-7.354,11.792-11.99    l0,0V315.749l0,0c0-4.644-6.896-10.371-11.528-10.371l0,0h-17.941v-22.31H591.424L591.424,283.068"/>
		<path id="path22" d="M678.644,464.357l97.368-181.289h85.931v260.544c0,4.629,6.896,11.155,11.525,11.155l0,0h17.952v22.346    h-96.372v-22.346h18.04l0,0c4.636,0,11.528-6.489,11.528-11.118l0,0V390.617L720.048,577.113H611.55v-22.346h17.955l0,0    c4.636,0,11.803-7.009,11.803-11.646l0,0V316.093l0,0c0-4.636-6.899-10.715-11.525-10.715l0,0h-17.952v-22.31h96.379v22.31    h-18.036l0,0c-4.636,0-11.532,6.028-11.532,10.679l0,0V464.357L678.644,464.357"/>
		<path id="path24" d="M958.953,470.685l-47.9-155.61l0,0c-1.78-4.783-4.578-9.697-9.207-9.697l0,0H883.14v-22.31h89.751    l-0.161,22.31h-17.948l0,0c-4.633,0-9.503,5.01-8.177,9.653l0,0l19.017,69.316l0,0c0.436,1.816,1.622,3.413,3.475,3.413l0,0    h36.475v27.056l-26.265-0.022l0,0c-1.86,0-4.087,1.838-3.501,3.691l0,0l14.736,52.2H958.953L958.953,470.685"/>
		<path id="path26" d="M1005.572,387.76h33.794l0,0c1.846,0,3.472-1.597,3.904-3.413l0,0l19.021-69.316l0,0    c1.34-4.644-3.545-9.653-8.181-9.653l0,0h-17.937l-0.176-22.31h147.173v22.31h-18.699l0,0c-4.629,0-7.441,4.915-9.207,9.697l0,0    l-77.073,262.039H948.549v-22.346h14.674l0,0c13.506-0.059,18.691-9.866,16.025-19.541l0,0l-20.295-64.541h31.589l14.297,49.453    l29.019-101.631l0,0c0.593-1.838-2.029-3.691-3.882-3.691l0,0h-24.404V387.76L1005.572,387.76"/>
		<path id="path28" d="M1404.199,351.535l0.015,191.155l0,0c0,4.622,7.104,12.078,11.748,12.078l0,0h17.871v22.346h-89.495v-22.346    h17.937l0,0c4.629,0,11.755-7.603,11.755-12.239l0,0l-0.007-192.004l0,0c-0.601-52.683-95.325-58.22-95.918,2.139l0,0v190.269l0,0    c0,4.629,7.119,11.836,11.733,11.836l0,0h17.886v22.346h-146.47v-22.346h17.959l0,0c4.629,0,11.733-7.354,11.733-11.99l0,0    V350.656l0,0C1190.948,255.939,1404.199,250.915,1404.199,351.535L1404.199,351.535L1404.199,351.535"/>
		<path id="path30" d="M1571.675,543.019c0,4.644,7.207,11.748,11.836,11.748l0,0h17.988v22.346h-146.88v-22.346h17.952l0,0    c4.629,0,11.814-7.009,11.814-11.646l0,0V316.093l0,0c0-4.629-6.914-10.715-11.536-10.715l0,0h-14.597v-22.31h227.681v88.813    h-47.131V334l0,0c0-13.015-6.189-28.623-17.432-28.623l0,0h-38.269l0,0c-4.644,0-11.521,6.775-11.521,11.411l0,0L1571.675,543.019    L1571.675,543.019"/>
		<path id="path32" d="M1777.427,283.068h73.323v22.31h-17.959l0,0c-4.629,0-11.741,6.533-11.741,11.169l0,0l0.015,233.21l0,0    c0,2.791,2.183,4.951,4.98,4.951c21.343-0.82,30.542-7.764,30.542-36.973l0,0v-27.231h42.627v86.609h-121.787h-121.772v-86.609    h42.612v27.231l0,0c0,29.209,9.192,36.152,30.542,36.973c2.798,0,4.995-2.161,4.995-4.951l0,0l0.015-233.21l0,0    c0-4.636-7.104-11.169-11.748-11.169l0,0h-17.944v-22.31H1777.427L1777.427,283.068"/>
		<path id="path34" d="M154.501,425.626c3.585,0,8.5-3.611,10.558-7.383l0,0l0.297-0.278l59.414-134.897h101.829v22.31h-7.152l0,0    c-6.123,0-9.203,7.69-12.913,14.099l0,0l-61.772,108.875l0,0c37.705,0,56.627,29.7,57.07,69.251    c-0.458,39.939-18.256,79.512-64.772,79.512l0,0h-66.581v-22.346h7.991l0,0c40.975,0,41.569-106.582,0-106.582l0,0h-33.124v40.547    H58.103V315.646l0,0c0-4.629-6.885-10.269-11.514-10.269l0,0H28.649v-22.31h146.294v22.31h-18.076l0,0    c-4.636,0-11.521,6.028-11.521,10.679l0,0l0.088,109.556h10.016L154.501,425.626L154.501,425.626"/>
		<path id="path36" d="M969.771,955.636l-89.59-155.215l0,0c-2.919-4.995-10.422-0.74-8.496,4.453l0,0l74.583,171.215    l-148.543,257.293l-203.573-0.051l0,0c0.267-2.681,2.084-6.218,2.476-7.2l0,0l261.292-452.597l0,0    c1.582-2.38,4.662-5.662,8.687-5.706l0,0h193.693l0,0c3.911,0.044,7.053,2.629,8.086,4.292l0,0l261.584,453.399l0,0    c0.828,1.329,2.622,5.343,4.827,10.712l0,0h-202.881L963.9,945.5L969.771,955.636L969.771,955.636"/>
		<path id="path38" d="M1102.705,1235.132h229.973l0,0c3.53,0,6.409,2.747,6.592,6.259c0.3,5.779-1.011,12.198-3.86,17.26l0,0    l-261.797,452.941l0,0c-2.952,4.9-8.152,6.991-13.638,6.738l0,0H867.873l0,0c-5.376,0.15-11.213-2.128-14.381-6.691l0,0    l-0.308-0.48l-260.449-452.531l0,0c-3.142-5.607-5.057-13.088-5.475-19.479c-0.238-3.64,2.52-6.779,6.16-7.02l0,0l0.425-0.007    h231.672l132.689-228.68l0,0c1.824-3.16,5.863-4.23,9.02-2.402c1.051,0.612,1.798,1.37,2.413,2.421l0,0l132.627,230.79l0,0    C1102.449,1234.55,1102.573,1234.81,1102.705,1235.132z M1090.43,1240.149l-126.541-220.188l-127.288,219.36l127.31,220.488    L1090.43,1240.149z M824.824,1245.32H601.608l0,0c0.685,2.501,1.472,4.548,2.655,6.848l0,0l260.112,451.963l1.45,0.82l0,0    c0.549,0.249,1.296,0.179,1.838,0.179c0.941-0.022,193.066,0,193.469,0.04c0.469,0.059,0.894-0.11,1.208-0.472l0,0    l261.548-452.549l0,0c0.667-1.278,1.121-2.421,1.516-3.809l0,0h-224.443l-131.338,227.977l0,0    c-1.816,3.171-5.852,4.252-9.016,2.432c-1.047-0.612-1.813-1.359-2.417-2.421l0,0L824.824,1245.32L824.824,1245.32"/>
		<path id="path40" d="M795.795,1244.482h35.354l132.762,228.549l130.474-226.71l35.801-0.018L981.065,1504.55l75.454,171.449l0,0    c1.992,4.611-6.057,8.342-8.679,3.79l0,0L795.795,1244.482L795.795,1244.482"/>
		<path id="path42" d="M853.059,771.242c2.963-5.2,7.753-8.335,13.696-8.979l0,0l0.359-0.044l0,0c0.07-0.007,194.253,0,194.253,0    c5.186,0.168,10.583,2.886,13.433,7.31l0,0l262.075,454.263l0,0c1.069,2.34,1.655,10.258,2.007,14.088l0,0l-13.169,1.15    l-0.688-7.877l-0.293-1.992l-260.977-452.373l0,0c-0.718-0.842-1.611-1.296-2.71-1.355l0,0h-193.14l0,0    c-1.37,0.117-2.743,1.245-3.395,2.388l0,0L603.435,1230.06l0,0c-0.498,0.989-1.787,4.46-1.86,5.072    c-0.443,3.607-3.739,6.189-7.357,5.75c-3.618-0.45-6.196-3.743-5.757-7.361c0.179-1.45,0.575-3.171,1.099-4.519l0,0l2.007-4.812    L853.059,771.242L853.059,771.242"/>
	</g>
</g>
</svg>